<svg width="144" height="40" viewBox="0 0 144 40" fill="none" xmlns="http://www.w3.org/2000/svg">
<path d="M38.96 28.168V17.928C38.96 17.6293 39.0933 17.3787 39.36 17.176C39.6373 16.9733 39.968 16.872 40.352 16.872C40.9173 16.872 41.3227 17.0587 41.568 17.432L45.04 21.8L48.544 17.384C48.8107 17.0427 49.2107 16.872 49.744 16.872C50.128 16.872 50.4533 16.9733 50.72 17.176C50.9867 17.3787 51.12 17.6293 51.12 17.928V28.168C51.12 28.4347 51.008 28.664 50.784 28.856C50.56 29.0373 50.2933 29.128 49.984 29.128C49.6747 29.128 49.408 29.0373 49.184 28.856C48.96 28.664 48.848 28.4347 48.848 28.168V20.552H48.8L46.016 24.2C45.7707 24.5307 45.44 24.696 45.024 24.696C44.6187 24.696 44.2933 24.5307 44.048 24.2L41.28 20.552H41.232V28.168C41.232 28.4347 41.12 28.664 40.896 28.856C40.672 29.0373 40.4053 29.128 40.096 29.128C39.7867 29.128 39.52 29.0373 39.296 28.856C39.072 28.664 38.96 28.4347 38.96 28.168ZM53.0381 28.168V20.568C53.0381 20.3013 53.1501 20.0773 53.3741 19.896C53.5981 19.704 53.8648 19.608 54.1741 19.608C54.4835 19.608 54.7501 19.704 54.9741 19.896C55.1981 20.0773 55.3101 20.3013 55.3101 20.568V28.168C55.3101 28.4347 55.1981 28.664 54.9741 28.856C54.7501 29.0373 54.4835 29.128 54.1741 29.128C53.8648 29.128 53.5981 29.0373 53.3741 28.856C53.1501 28.664 53.0381 28.4347 53.0381 28.168ZM53.2781 18.824C53.0328 18.5787 52.9101 18.28 52.9101 17.928C52.9101 17.576 53.0328 17.2773 53.2781 17.032C53.5235 16.7867 53.8221 16.664 54.1741 16.664C54.5261 16.664 54.8248 16.7867 55.0701 17.032C55.3155 17.2773 55.4381 17.576 55.4381 17.928C55.4381 18.28 55.3155 18.5787 55.0701 18.824C54.8248 19.0693 54.5261 19.192 54.1741 19.192C53.8221 19.192 53.5235 19.0693 53.2781 18.824ZM63.5136 28.168V23.688C63.5136 23.1227 63.3163 22.6427 62.9216 22.248C62.5376 21.8427 62.0683 21.64 61.5136 21.64C60.9483 21.64 60.4683 21.8427 60.0736 22.248C59.6896 22.6427 59.4976 23.1227 59.4976 23.688V28.168C59.4976 28.4347 59.3856 28.664 59.1616 28.856C58.9376 29.0373 58.671 29.128 58.3616 29.128C58.0523 29.128 57.7856 29.0373 57.5616 28.856C57.3376 28.664 57.2256 28.4347 57.2256 28.168V20.504C57.2256 20.248 57.3323 20.0347 57.5456 19.864C57.759 19.6933 58.015 19.608 58.3136 19.608C58.6123 19.608 58.8683 19.6933 59.0816 19.864C59.3056 20.0347 59.4176 20.248 59.4176 20.504V21.208H59.4496C60.2176 20.0453 61.1776 19.464 62.3296 19.464C63.3963 19.464 64.239 19.816 64.8576 20.52C65.4763 21.2133 65.7856 22.1733 65.7856 23.4V28.168C65.7856 28.4347 65.6736 28.664 65.4496 28.856C65.2363 29.0373 64.975 29.128 64.6656 29.128C64.3456 29.128 64.0736 29.0373 63.8496 28.856C63.6256 28.664 63.5136 28.4347 63.5136 28.168ZM69.982 20.568V25.048C69.982 25.6133 70.174 26.0987 70.558 26.504C70.9527 26.8987 71.4273 27.096 71.982 27.096C72.5473 27.096 73.022 26.8987 73.406 26.504C73.8007 26.0987 73.998 25.6133 73.998 25.048V20.568C73.998 20.3013 74.11 20.0773 74.334 19.896C74.558 19.704 74.8247 19.608 75.134 19.608C75.4433 19.608 75.71 19.704 75.934 19.896C76.158 20.0773 76.27 20.3013 76.27 20.568V28.232C76.27 28.488 76.1633 28.7013 75.95 28.872C75.7367 29.0427 75.4807 29.128 75.182 29.128C74.8833 29.128 74.622 29.0427 74.398 28.872C74.1847 28.7013 74.078 28.488 74.078 28.232V27.528H74.046C73.278 28.6907 72.318 29.272 71.166 29.272C70.0993 29.272 69.2567 28.9253 68.638 28.232C68.0193 27.528 67.71 26.5627 67.71 25.336V20.568C67.71 20.3013 67.8167 20.0773 68.03 19.896C68.254 19.704 68.5207 19.608 68.83 19.608C69.15 19.608 69.422 19.704 69.646 19.896C69.87 20.0773 69.982 20.3013 69.982 20.568ZM78.6104 19.736V18.456C78.6104 18.2 78.7224 17.9813 78.9464 17.8C79.1704 17.608 79.4317 17.512 79.7304 17.512C80.029 17.512 80.2904 17.608 80.5144 17.8C80.7384 17.9813 80.8504 18.2 80.8504 18.456V19.736H81.6504C81.885 19.736 82.0824 19.8373 82.2424 20.04C82.413 20.232 82.4984 20.4613 82.4984 20.728C82.4984 20.9947 82.413 21.2293 82.2424 21.432C82.0824 21.624 81.885 21.72 81.6504 21.72H80.8504V26.264C80.8504 26.424 80.9037 26.5573 81.0104 26.664C81.117 26.7707 81.245 26.824 81.3944 26.824H81.6504C81.885 26.824 82.0824 26.9307 82.2424 27.144C82.413 27.3573 82.4984 27.6133 82.4984 27.912C82.4984 28.2107 82.413 28.4667 82.2424 28.68C82.0824 28.8933 81.885 29 81.6504 29H81.3944C80.5197 29 79.837 28.7867 79.3464 28.36C78.8557 27.9333 78.6104 27.288 78.6104 26.424V21.72H78.3384C78.1037 21.72 77.901 21.624 77.7304 21.432C77.5704 21.2293 77.4904 20.9947 77.4904 20.728C77.4904 20.4613 77.5704 20.232 77.7304 20.04C77.901 19.8373 78.1037 19.736 78.3384 19.736H78.6104ZM93.4376 24.36C93.4376 24.6267 93.3256 24.8667 93.1016 25.08C92.8776 25.2933 92.611 25.4 92.3016 25.4H85.9336C86.1256 25.9547 86.4616 26.4027 86.9416 26.744C87.4216 27.0747 87.955 27.24 88.5416 27.24C88.9576 27.24 89.3843 27.1653 89.8216 27.016C90.259 26.8667 90.6163 26.6693 90.8936 26.424C91.0536 26.2427 91.2616 26.1573 91.5176 26.168C91.7843 26.168 92.019 26.264 92.2216 26.456C92.4243 26.6267 92.547 26.8453 92.5896 27.112C92.6323 27.3787 92.579 27.5973 92.4296 27.768C91.9496 28.248 91.363 28.6213 90.6696 28.888C89.9763 29.144 89.267 29.272 88.5416 29.272C87.1336 29.272 85.923 28.8027 84.9096 27.864C83.907 26.9147 83.4056 25.7467 83.4056 24.36C83.4056 22.9733 83.8963 21.8107 84.8776 20.872C85.859 19.9333 87.0536 19.464 88.4616 19.464C89.8376 19.464 91.011 19.9387 91.9816 20.888C92.9523 21.8373 93.4376 22.9947 93.4376 24.36ZM85.9336 23.432H91.0056C90.8136 22.8667 90.4883 22.4187 90.0296 22.088C89.571 21.7573 89.0483 21.592 88.4616 21.592C87.8856 21.592 87.3683 21.7627 86.9096 22.104C86.451 22.4347 86.1256 22.8773 85.9336 23.432ZM95.2621 24.952C95.1341 24.792 95.0701 24.6 95.0701 24.376C95.0701 24.152 95.1341 23.96 95.2621 23.8C95.4008 23.64 95.5608 23.56 95.7421 23.56H99.8701C100.051 23.56 100.206 23.64 100.334 23.8C100.473 23.96 100.542 24.152 100.542 24.376C100.542 24.6 100.473 24.792 100.334 24.952C100.206 25.112 100.051 25.192 99.8701 25.192H95.7421C95.5608 25.192 95.4008 25.112 95.2621 24.952ZM108.972 26.44C109.153 26.2587 109.382 26.184 109.66 26.216C109.948 26.2373 110.198 26.3547 110.412 26.568C110.636 26.792 110.753 27.048 110.764 27.336C110.785 27.6133 110.684 27.8533 110.46 28.056C109.532 28.8667 108.454 29.272 107.228 29.272C105.809 29.272 104.609 28.8027 103.628 27.864C102.646 26.9147 102.156 25.7467 102.156 24.36C102.156 22.9733 102.646 21.8107 103.628 20.872C104.609 19.9333 105.809 19.464 107.228 19.464C108.497 19.464 109.574 19.864 110.46 20.664C110.684 20.8773 110.79 21.1227 110.78 21.4C110.769 21.6667 110.646 21.9173 110.412 22.152C110.198 22.3653 109.948 22.488 109.66 22.52C109.382 22.5413 109.153 22.4613 108.972 22.28C108.481 21.8533 107.9 21.64 107.228 21.64C106.481 21.64 105.841 21.9067 105.308 22.44C104.785 22.9733 104.524 23.6133 104.524 24.36C104.524 25.1067 104.785 25.752 105.308 26.296C105.841 26.8293 106.481 27.096 107.228 27.096C107.878 27.096 108.46 26.8773 108.972 26.44ZM119.588 24.36C119.588 23.6133 119.327 22.9733 118.804 22.44C118.281 21.9067 117.641 21.64 116.884 21.64C116.137 21.64 115.497 21.9067 114.964 22.44C114.441 22.9733 114.18 23.6133 114.18 24.36C114.18 25.1173 114.441 25.7627 114.964 26.296C115.497 26.8293 116.137 27.096 116.884 27.096C117.641 27.096 118.281 26.8293 118.804 26.296C119.327 25.7627 119.588 25.1173 119.588 24.36ZM121.956 24.36C121.956 25.7573 121.465 26.9253 120.484 27.864C119.503 28.8027 118.303 29.272 116.884 29.272C115.476 29.272 114.276 28.8027 113.284 27.864C112.303 26.9253 111.812 25.7573 111.812 24.36C111.812 22.9733 112.303 21.8107 113.284 20.872C114.276 19.9333 115.476 19.464 116.884 19.464C118.303 19.464 119.503 19.9333 120.484 20.872C121.465 21.8107 121.956 22.9733 121.956 24.36ZM129.878 26.44C130.059 26.2587 130.289 26.184 130.566 26.216C130.854 26.2373 131.105 26.3547 131.318 26.568C131.542 26.792 131.659 27.048 131.67 27.336C131.691 27.6133 131.59 27.8533 131.366 28.056C130.438 28.8667 129.361 29.272 128.134 29.272C126.715 29.272 125.515 28.8027 124.534 27.864C123.553 26.9147 123.062 25.7467 123.062 24.36C123.062 22.9733 123.553 21.8107 124.534 20.872C125.515 19.9333 126.715 19.464 128.134 19.464C129.403 19.464 130.481 19.864 131.366 20.664C131.59 20.8773 131.697 21.1227 131.686 21.4C131.675 21.6667 131.553 21.9173 131.318 22.152C131.105 22.3653 130.854 22.488 130.566 22.52C130.289 22.5413 130.059 22.4613 129.878 22.28C129.387 21.8533 128.806 21.64 128.134 21.64C127.387 21.64 126.747 21.9067 126.214 22.44C125.691 22.9733 125.43 23.6133 125.43 24.36C125.43 25.1067 125.691 25.752 126.214 26.296C126.747 26.8293 127.387 27.096 128.134 27.096C128.785 27.096 129.366 26.8773 129.878 26.44ZM140.494 24.36C140.494 23.6133 140.233 22.9733 139.71 22.44C139.187 21.9067 138.547 21.64 137.79 21.64C137.043 21.64 136.403 21.9067 135.87 22.44C135.347 22.9733 135.086 23.6133 135.086 24.36C135.086 25.1173 135.347 25.7627 135.87 26.296C136.403 26.8293 137.043 27.096 137.79 27.096C138.547 27.096 139.187 26.8293 139.71 26.296C140.233 25.7627 140.494 25.1173 140.494 24.36ZM142.862 24.36C142.862 25.7573 142.371 26.9253 141.39 27.864C140.409 28.8027 139.209 29.272 137.79 29.272C136.382 29.272 135.182 28.8027 134.19 27.864C133.209 26.9253 132.718 25.7573 132.718 24.36C132.718 22.9733 133.209 21.8107 134.19 20.872C135.182 19.9333 136.382 19.464 137.79 19.464C139.209 19.464 140.409 19.9333 141.39 20.872C142.371 21.8107 142.862 22.9733 142.862 24.36Z" fill="black"/>
<path d="M22.1187 3.52226C19.9269 1.36342 17.7974 0.313782 15.6105 0.313782H15.5057C13.2915 0.313782 11.2221 1.33327 8.99563 3.52226C3.8508 8.58435 0.353816 18.3951 0.312061 24.3814C0.297153 26.3833 0.683523 28.368 1.44844 30.2186C2.21336 32.0691 3.34137 33.7482 4.76606 35.157C6.17215 36.592 7.85115 37.7321 9.70453 38.5104C11.5579 39.2888 13.5483 39.6897 15.559 39.6897C17.5697 39.6897 19.5601 39.2888 21.4135 38.5104C23.2669 37.7321 24.9459 36.592 26.352 35.157C27.7766 33.7482 28.9046 32.0691 29.6695 30.2185C30.4344 28.368 30.8208 26.3833 30.806 24.3814C30.7616 18.3907 27.2616 8.57914 22.1187 3.52226Z" fill="white"/>
<path d="M28.6912 29.5073C29.3311 27.2657 29.2613 24.8815 28.4915 22.6811C27.7217 20.4806 26.2894 18.5715 24.3908 17.2152C22.4923 15.8589 20.2202 15.1216 17.8857 15.1043C15.5512 15.087 13.2684 15.7906 11.3499 17.1187C9.43138 18.4468 7.97093 20.3344 7.16851 22.5232C6.36608 24.712 6.26092 27.0949 6.8674 29.3457C7.47389 31.5965 8.76237 33.6051 10.5564 35.0965C12.3505 36.5879 14.5625 37.4892 16.8895 37.677C18.9132 37.8435 20.9444 37.4605 22.768 36.5685C25.4902 34.9568 27.5798 32.4657 28.6912 29.5073Z" fill="#FFCD32"/>
<path d="M17.0485 32.1965C24.0011 30.8565 25.5941 25.315 25.8428 24.2177C25.8964 23.9818 25.8542 23.7343 25.7256 23.5293C25.5969 23.3243 25.3921 23.1785 25.1561 23.1238C25.0381 23.0909 24.9145 23.0834 24.7934 23.1016C24.6723 23.1198 24.5565 23.1634 24.4534 23.2295C24.3504 23.2956 24.2625 23.3826 24.1955 23.485C24.1285 23.5874 24.084 23.7028 24.0649 23.8235C23.4933 25.8621 21.778 29.4279 16.7029 30.4002C16.0589 30.5232 15.4047 30.5855 14.749 30.5863C10.8162 30.5863 8.19681 28.3057 7.33673 27.5557C7.28504 27.5105 7.24104 27.4723 7.20476 27.4411C7.02933 27.2478 6.78666 27.1286 6.52624 27.1079C6.34813 27.1223 6.17756 27.186 6.03379 27.292C5.89001 27.3979 5.77874 27.5418 5.7125 27.7075C5.64626 27.8732 5.6277 28.0541 5.6589 28.2298C5.69011 28.4054 5.76983 28.5689 5.8891 28.7017C6.50014 29.3233 9.79731 32.4191 14.7207 32.4202C15.502 32.4192 16.2814 32.3442 17.0485 32.1965V32.1965Z" fill="black"/>
<path d="M11.873 21.5735C12.1429 21.573 12.4015 21.4656 12.5921 21.275C12.7828 21.0844 12.89 20.826 12.8901 20.5566V17.6481C12.8901 17.3786 12.7828 17.1202 12.592 16.9296C12.4011 16.739 12.1422 16.632 11.8723 16.632C11.6023 16.632 11.3435 16.739 11.1526 16.9296C10.9617 17.1202 10.8545 17.3786 10.8545 17.6481V20.5566C10.8548 20.8262 10.9622 21.0847 11.1531 21.2753C11.3441 21.4659 11.603 21.5732 11.873 21.5735V21.5735Z" fill="black"/>
<path d="M18.0795 21.5735C18.3493 21.5729 18.6079 21.4655 18.7985 21.2749C18.9892 21.0843 19.0963 20.826 19.0965 20.5566V17.6482C19.0965 17.3788 18.9893 17.1205 18.7986 16.93C18.6078 16.7396 18.3491 16.6326 18.0793 16.6326C17.8095 16.6326 17.5508 16.7396 17.36 16.93C17.1692 17.1205 17.0621 17.3788 17.0621 17.6482V20.5566C17.0622 20.8261 17.1694 21.0845 17.3601 21.2752C17.5509 21.4658 17.8096 21.5731 18.0795 21.5735V21.5735Z" fill="black"/>
<path d="M22.3383 3.29892C20.0847 1.07941 17.8836 0 15.6094 0H15.5598H15.508C13.2044 0 11.0655 1.04814 8.77684 3.29892C3.57721 8.4161 0.041826 18.3296 0.000443738 24.3785C-0.0151227 26.4216 0.379015 28.4473 1.15964 30.3361C1.94026 32.2248 3.09158 33.9385 4.54578 35.3762C5.98097 36.8401 7.69446 38.0031 9.58576 38.797C11.4771 39.591 13.5081 40 15.5598 40C17.6115 40 19.6426 39.591 21.5339 38.797C23.4252 38.0031 25.1386 36.8401 26.5738 35.3762C28.0279 33.9385 29.1791 32.2247 29.9597 30.336C30.7402 28.4472 31.1343 26.4216 31.1188 24.3785C31.0741 18.3259 27.5353 8.41089 22.3383 3.29892ZM15.5598 38.3376C11.8871 38.3146 8.37332 36.8385 5.78912 34.2328C4.49913 32.9581 3.47752 31.4386 2.78438 29.7639C2.09125 28.0891 1.74058 26.2929 1.75304 24.4808C1.79591 18.8384 5.23176 9.22007 10.0929 4.43714C12.0114 2.54741 13.7364 1.66676 15.5207 1.66676H15.5978C17.3847 1.66676 19.1094 2.54741 21.0249 4.43714C25.8882 9.22156 29.3245 18.8418 29.3651 24.4808C29.3698 28.1445 27.9191 31.6606 25.3312 34.2581C22.7434 36.8557 19.2294 38.3227 15.5598 38.3376V38.3376Z" fill="black"/>
</svg>
