<svg width="121" height="40" viewBox="0 0 121 40" fill="none" xmlns="http://www.w3.org/2000/svg">
<g clip-path="url(#clip0_2044_3434)">
<path d="M39.3116 28.04V17.96C39.3116 17.6933 39.4236 17.4693 39.6476 17.288C39.8716 17.096 40.1382 17 40.4476 17H47.2956C47.5622 17 47.7862 17.1067 47.9676 17.32C48.1596 17.5333 48.2556 17.7893 48.2556 18.088C48.2556 18.3867 48.1596 18.6427 47.9676 18.856C47.7862 19.0693 47.5622 19.176 47.2956 19.176H41.5836V21.896H46.1916C46.4582 21.896 46.6822 22.0027 46.8636 22.216C47.0556 22.4293 47.1516 22.6853 47.1516 22.984C47.1516 23.2827 47.0556 23.5387 46.8636 23.752C46.6822 23.9653 46.4582 24.072 46.1916 24.072H41.5836V26.824H47.2956C47.5622 26.824 47.7862 26.9307 47.9676 27.144C48.1596 27.3573 48.2556 27.6133 48.2556 27.912C48.2556 28.2107 48.1596 28.4667 47.9676 28.68C47.7862 28.8933 47.5622 29 47.2956 29H40.4476C40.1382 29 39.8716 28.9093 39.6476 28.728C39.4236 28.536 39.3116 28.3067 39.3116 28.04ZM57.3654 21.112C57.2161 21.112 57.0988 21.1547 57.0134 21.24C56.9388 21.3147 56.9121 21.416 56.9334 21.544C56.9334 21.576 56.9708 21.6987 57.0454 21.912C57.1201 22.1253 57.1574 22.328 57.1574 22.52C57.1574 23.4267 56.8428 24.1733 56.2134 24.76C55.5948 25.3467 54.7948 25.64 53.8134 25.64C52.3521 25.64 51.6214 25.896 51.6214 26.408C51.6214 26.5253 51.6588 26.6267 51.7334 26.712C52.3948 26.5093 53.0881 26.408 53.8134 26.408C55.1254 26.408 56.1921 26.648 57.0134 27.128C57.8454 27.5973 58.2614 28.2907 58.2614 29.208C58.2614 30.136 57.8561 30.8347 57.0454 31.304C56.2454 31.7733 55.1681 32.008 53.8134 32.008C52.4588 32.008 51.3761 31.7733 50.5654 31.304C49.7548 30.8347 49.3494 30.136 49.3494 29.208C49.3494 28.7493 49.5468 28.2853 49.9414 27.816C49.6108 27.4533 49.4454 27.0373 49.4454 26.568C49.4454 26.0453 49.6054 25.592 49.9254 25.208C50.2454 24.824 50.7041 24.584 51.3014 24.488C50.7361 23.976 50.4534 23.32 50.4534 22.52C50.4534 21.656 50.7788 20.9307 51.4294 20.344C52.0801 19.7573 52.8748 19.464 53.8134 19.464C54.6134 19.464 55.3174 19.7147 55.9254 20.216C56.2988 19.7147 56.7788 19.464 57.3654 19.464H57.5734C57.7654 19.464 57.9254 19.544 58.0534 19.704C58.1921 19.864 58.2614 20.056 58.2614 20.28C58.2614 20.504 58.1921 20.7013 58.0534 20.872C57.9254 21.032 57.7654 21.112 57.5734 21.112H57.3654ZM51.7174 29.096C51.7174 29.7253 52.4161 30.04 53.8134 30.04C55.2001 30.04 55.8934 29.7253 55.8934 29.096C55.8934 28.456 55.2001 28.136 53.8134 28.136C52.4161 28.136 51.7174 28.456 51.7174 29.096ZM54.6134 23.416C54.8374 23.192 54.9494 22.9253 54.9494 22.616C54.9494 22.3067 54.8374 22.04 54.6134 21.816C54.3894 21.5813 54.1228 21.464 53.8134 21.464C53.4934 21.464 53.2214 21.5813 52.9974 21.816C52.7734 22.04 52.6614 22.3067 52.6614 22.616C52.6614 22.9253 52.7734 23.192 52.9974 23.416C53.2214 23.64 53.4934 23.752 53.8134 23.752C54.1228 23.752 54.3894 23.64 54.6134 23.416ZM67.2092 21.112C67.0599 21.112 66.9425 21.1547 66.8572 21.24C66.7825 21.3147 66.7559 21.416 66.7772 21.544C66.7772 21.576 66.8145 21.6987 66.8892 21.912C66.9639 22.1253 67.0012 22.328 67.0012 22.52C67.0012 23.4267 66.6865 24.1733 66.0572 24.76C65.4385 25.3467 64.6385 25.64 63.6572 25.64C62.1959 25.64 61.4652 25.896 61.4652 26.408C61.4652 26.5253 61.5025 26.6267 61.5772 26.712C62.2385 26.5093 62.9319 26.408 63.6572 26.408C64.9692 26.408 66.0359 26.648 66.8572 27.128C67.6892 27.5973 68.1052 28.2907 68.1052 29.208C68.1052 30.136 67.6999 30.8347 66.8892 31.304C66.0892 31.7733 65.0119 32.008 63.6572 32.008C62.3025 32.008 61.2199 31.7733 60.4092 31.304C59.5985 30.8347 59.1932 30.136 59.1932 29.208C59.1932 28.7493 59.3905 28.2853 59.7852 27.816C59.4545 27.4533 59.2892 27.0373 59.2892 26.568C59.2892 26.0453 59.4492 25.592 59.7692 25.208C60.0892 24.824 60.5479 24.584 61.1452 24.488C60.5799 23.976 60.2972 23.32 60.2972 22.52C60.2972 21.656 60.6225 20.9307 61.2732 20.344C61.9239 19.7573 62.7185 19.464 63.6572 19.464C64.4572 19.464 65.1612 19.7147 65.7692 20.216C66.1425 19.7147 66.6225 19.464 67.2092 19.464H67.4172C67.6092 19.464 67.7692 19.544 67.8972 19.704C68.0359 19.864 68.1052 20.056 68.1052 20.28C68.1052 20.504 68.0359 20.7013 67.8972 20.872C67.7692 21.032 67.6092 21.112 67.4172 21.112H67.2092ZM61.5612 29.096C61.5612 29.7253 62.2599 30.04 63.6572 30.04C65.0439 30.04 65.7372 29.7253 65.7372 29.096C65.7372 28.456 65.0439 28.136 63.6572 28.136C62.2599 28.136 61.5612 28.456 61.5612 29.096ZM64.4572 23.416C64.6812 23.192 64.7932 22.9253 64.7932 22.616C64.7932 22.3067 64.6812 22.04 64.4572 21.816C64.2332 21.5813 63.9665 21.464 63.6572 21.464C63.3372 21.464 63.0652 21.5813 62.8412 21.816C62.6172 22.04 62.5052 22.3067 62.5052 22.616C62.5052 22.9253 62.6172 23.192 62.8412 23.416C63.0652 23.64 63.3372 23.752 63.6572 23.752C63.9665 23.752 64.2332 23.64 64.4572 23.416ZM73.8614 19.176C73.6054 19.176 73.3868 19.0693 73.2054 18.856C73.0241 18.6427 72.9334 18.3867 72.9334 18.088C72.9334 17.7893 73.0241 17.5333 73.2054 17.32C73.3868 17.1067 73.6054 17 73.8614 17H81.6054C81.8614 17 82.0801 17.1067 82.2614 17.32C82.4428 17.5333 82.5334 17.7893 82.5334 18.088C82.5334 18.3867 82.4428 18.6427 82.2614 18.856C82.0801 19.0693 81.8614 19.176 81.6054 19.176H78.8694V28.168C78.8694 28.4347 78.7574 28.664 78.5334 28.856C78.3094 29.0373 78.0428 29.128 77.7334 29.128C77.4241 29.128 77.1574 29.0373 76.9334 28.856C76.7094 28.664 76.5974 28.4347 76.5974 28.168V19.176H73.8614ZM83.6553 28.168V20.568C83.6553 20.3013 83.7673 20.0773 83.9913 19.896C84.2153 19.704 84.482 19.608 84.7913 19.608C85.1006 19.608 85.3673 19.704 85.5913 19.896C85.8153 20.0773 85.9273 20.3013 85.9273 20.568V28.168C85.9273 28.4347 85.8153 28.664 85.5913 28.856C85.3673 29.0373 85.1006 29.128 84.7913 29.128C84.482 29.128 84.2153 29.0373 83.9913 28.856C83.7673 28.664 83.6553 28.4347 83.6553 28.168ZM83.8953 18.824C83.65 18.5787 83.5273 18.28 83.5273 17.928C83.5273 17.576 83.65 17.2773 83.8953 17.032C84.1406 16.7867 84.4393 16.664 84.7913 16.664C85.1433 16.664 85.442 16.7867 85.6873 17.032C85.9326 17.2773 86.0553 17.576 86.0553 17.928C86.0553 18.28 85.9326 18.5787 85.6873 18.824C85.442 19.0693 85.1433 19.192 84.7913 19.192C84.4393 19.192 84.1406 19.0693 83.8953 18.824ZM98.8348 28.168V23.272C98.8348 22.8133 98.6748 22.4293 98.3548 22.12C98.0455 21.8 97.6615 21.64 97.2028 21.64C96.7548 21.64 96.3708 21.8 96.0508 22.12C95.7415 22.4293 95.5868 22.8133 95.5868 23.272V28.168C95.5868 28.4347 95.4748 28.664 95.2508 28.856C95.0268 29.0373 94.7601 29.128 94.4508 29.128C94.1415 29.128 93.8748 29.0373 93.6508 28.856C93.4268 28.664 93.3148 28.4347 93.3148 28.168V23.272C93.3148 22.8133 93.1601 22.4293 92.8508 22.12C92.5521 21.8 92.1735 21.64 91.7148 21.64C91.2668 21.64 90.8881 21.8 90.5788 22.12C90.2695 22.4293 90.1148 22.8133 90.1148 23.272V28.168C90.1148 28.4347 90.0028 28.664 89.7788 28.856C89.5548 29.0373 89.2828 29.128 88.9628 29.128C88.6535 29.128 88.3868 29.0373 88.1628 28.856C87.9495 28.664 87.8428 28.4347 87.8428 28.168V20.504C87.8428 20.248 87.9495 20.0347 88.1628 19.864C88.3761 19.6933 88.6321 19.608 88.9308 19.608C89.2295 19.608 89.4855 19.6933 89.6988 19.864C89.9228 20.0347 90.0348 20.248 90.0348 20.504V21.08H90.0668C90.7495 20.0027 91.5761 19.464 92.5468 19.464C93.5708 19.464 94.4188 19.9973 95.0908 21.064C95.8588 19.9973 96.7815 19.464 97.8588 19.464C98.8721 19.464 99.6668 19.8107 100.243 20.504C100.819 21.1973 101.107 22.12 101.107 23.272V28.168C101.107 28.4347 100.995 28.664 100.771 28.856C100.547 29.0373 100.28 29.128 99.9708 29.128C99.6615 29.128 99.3948 29.0373 99.1708 28.856C98.9468 28.664 98.8348 28.4347 98.8348 28.168ZM112.727 24.36C112.727 24.6267 112.615 24.8667 112.391 25.08C112.167 25.2933 111.9 25.4 111.591 25.4H105.223C105.415 25.9547 105.751 26.4027 106.231 26.744C106.711 27.0747 107.244 27.24 107.831 27.24C108.247 27.24 108.673 27.1653 109.111 27.016C109.548 26.8667 109.905 26.6693 110.183 26.424C110.343 26.2427 110.551 26.1573 110.807 26.168C111.073 26.168 111.308 26.264 111.511 26.456C111.713 26.6267 111.836 26.8453 111.879 27.112C111.921 27.3787 111.868 27.5973 111.719 27.768C111.239 28.248 110.652 28.6213 109.959 28.888C109.265 29.144 108.556 29.272 107.831 29.272C106.423 29.272 105.212 28.8027 104.199 27.864C103.196 26.9147 102.695 25.7467 102.695 24.36C102.695 22.9733 103.185 21.8107 104.167 20.872C105.148 19.9333 106.343 19.464 107.751 19.464C109.127 19.464 110.3 19.9387 111.271 20.888C112.241 21.8373 112.727 22.9947 112.727 24.36ZM105.223 23.432H110.295C110.103 22.8667 109.777 22.4187 109.319 22.088C108.86 21.7573 108.337 21.592 107.751 21.592C107.175 21.592 106.657 21.7627 106.199 22.104C105.74 22.4347 105.415 22.8773 105.223 23.432ZM118.871 19.464C119.106 19.464 119.362 19.496 119.639 19.56C119.885 19.6133 120.087 19.7413 120.247 19.944C120.407 20.136 120.487 20.36 120.487 20.616C120.487 20.9147 120.381 21.1707 120.167 21.384C119.965 21.5973 119.709 21.704 119.399 21.704C119.378 21.704 119.341 21.704 119.287 21.704C119.234 21.6933 119.159 21.6827 119.063 21.672C118.967 21.6613 118.866 21.6507 118.759 21.64C118.151 21.608 117.639 21.832 117.223 22.312C116.807 22.792 116.599 23.368 116.599 24.04V28.168C116.599 28.4347 116.487 28.664 116.263 28.856C116.039 29.0373 115.773 29.128 115.463 29.128C115.154 29.128 114.887 29.0373 114.663 28.856C114.439 28.664 114.327 28.4347 114.327 28.168V20.504C114.327 20.2587 114.429 20.0507 114.631 19.88C114.845 19.6987 115.095 19.608 115.383 19.608C115.671 19.608 115.917 19.6987 116.119 19.88C116.333 20.0507 116.439 20.2587 116.439 20.504V21.016H116.471C117.079 19.9813 117.879 19.464 118.871 19.464Z" fill="black"/>
<path d="M22.1185 3.5222C19.9268 1.36336 17.7973 0.313721 15.6103 0.313721H15.5056C13.2914 0.313721 11.2219 1.33321 8.99551 3.5222C3.85068 8.58429 0.353694 18.3951 0.311939 24.3814C0.297031 26.3833 0.683401 28.3679 1.44832 30.2185C2.21324 32.0691 3.34125 33.7482 4.76594 35.1569C6.17203 36.5919 7.85103 37.732 9.70441 38.5104C11.5578 39.2887 13.5482 39.6897 15.5589 39.6897C17.5696 39.6897 19.56 39.2887 21.4134 38.5104C23.2668 37.732 24.9457 36.5919 26.3518 35.1569C27.7765 33.7481 28.9045 32.0691 29.6694 30.2185C30.4343 28.3679 30.8207 26.3833 30.8058 24.3814C30.7615 18.3906 27.2615 8.57908 22.1185 3.5222Z" fill="white"/>
<path d="M28.6911 29.5073C29.331 27.2657 29.2612 24.8815 28.4914 22.6811C27.7215 20.4806 26.2893 18.5715 24.3907 17.2152C22.4921 15.8589 20.2201 15.1216 17.8856 15.1043C15.5511 15.087 13.2683 15.7906 11.3498 17.1187C9.43126 18.4468 7.97081 20.3344 7.16838 22.5232C6.36596 24.712 6.2608 27.0949 6.86728 29.3457C7.47377 31.5965 8.76225 33.6051 10.5563 35.0965C12.3504 36.5879 14.5624 37.4892 16.8893 37.677C18.9131 37.8435 20.9443 37.4605 22.7679 36.5685C25.49 34.9568 27.5797 32.4657 28.6911 29.5073Z" fill="#FFCD32"/>
<path d="M17.0484 32.1963C24.001 30.8564 25.594 25.3149 25.8427 24.2176C25.8963 23.9816 25.8541 23.7341 25.7254 23.5291C25.5968 23.3242 25.392 23.1784 25.156 23.1236C25.038 23.0908 24.9144 23.0833 24.7933 23.1015C24.6722 23.1197 24.5563 23.1633 24.4533 23.2294C24.3502 23.2954 24.2623 23.3825 24.1954 23.4849C24.1284 23.5873 24.0839 23.7026 24.0647 23.8234C23.4932 25.862 21.7779 29.4278 16.7028 30.4C16.0588 30.5231 15.4046 30.5854 14.7489 30.5862C10.8161 30.5862 8.19669 28.3056 7.33661 27.5556C7.28491 27.5104 7.24092 27.4722 7.20463 27.4409C7.02921 27.2477 6.78654 27.1285 6.52612 27.1078C6.34801 27.1222 6.17744 27.1859 6.03366 27.2918C5.88989 27.3978 5.77862 27.5417 5.71238 27.7074C5.64614 27.8731 5.62758 28.054 5.65878 28.2297C5.68998 28.4053 5.76971 28.5688 5.88898 28.7016C6.50002 29.3232 9.79719 32.4189 14.7206 32.42C15.5018 32.419 16.2813 32.3441 17.0484 32.1963Z" fill="black"/>
<path d="M11.873 21.5736C12.1429 21.5731 12.4015 21.4658 12.5921 21.2751C12.7828 21.0845 12.89 20.8261 12.8901 20.5567V17.6482C12.8901 17.3787 12.7828 17.1203 12.592 16.9297C12.4011 16.7391 12.1422 16.6321 11.8723 16.6321C11.6023 16.6321 11.3435 16.7391 11.1526 16.9297C10.9617 17.1203 10.8545 17.3787 10.8545 17.6482V20.5567C10.8548 20.8263 10.9622 21.0848 11.1531 21.2754C11.3441 21.4661 11.603 21.5733 11.873 21.5736Z" fill="black"/>
<path d="M18.0794 21.5735C18.3492 21.5729 18.6078 21.4655 18.7984 21.2749C18.9891 21.0843 19.0963 20.826 19.0965 20.5566V17.6482C19.0965 17.3788 18.9893 17.1205 18.7985 16.93C18.6078 16.7396 18.349 16.6326 18.0792 16.6326C17.8095 16.6326 17.5507 16.7396 17.36 16.93C17.1692 17.1205 17.062 17.3788 17.062 17.6482V20.5566C17.0621 20.8261 17.1693 21.0845 17.3601 21.2752C17.5508 21.4658 17.8095 21.5731 18.0794 21.5735Z" fill="black"/>
<path d="M22.3383 3.29892C20.0847 1.07941 17.8836 0 15.6094 0H15.5598H15.508C13.2044 0 11.0655 1.04814 8.77684 3.29892C3.57721 8.4161 0.041826 18.3296 0.000443738 24.3785C-0.0151227 26.4216 0.379015 28.4473 1.15964 30.3361C1.94026 32.2248 3.09158 33.9385 4.54578 35.3762C5.98097 36.8401 7.69446 38.0031 9.58576 38.797C11.4771 39.591 13.5081 40 15.5598 40C17.6115 40 19.6426 39.591 21.5339 38.797C23.4252 38.0031 25.1386 36.8401 26.5738 35.3762C28.0279 33.9385 29.1791 32.2247 29.9597 30.336C30.7402 28.4472 31.1343 26.4216 31.1188 24.3785C31.0741 18.3259 27.5353 8.41089 22.3383 3.29892ZM15.5598 38.3376C11.8871 38.3146 8.37332 36.8385 5.78912 34.2328C4.49913 32.9581 3.47752 31.4386 2.78438 29.7639C2.09125 28.0891 1.74058 26.2929 1.75304 24.4808C1.79591 18.8384 5.23176 9.22007 10.0929 4.43714C12.0114 2.54741 13.7364 1.66676 15.5207 1.66676H15.5978C17.3847 1.66676 19.1094 2.54741 21.0249 4.43714C25.8882 9.22156 29.3245 18.8418 29.3651 24.4808C29.3698 28.1445 27.9191 31.6606 25.3312 34.2581C22.7434 36.8557 19.2294 38.3227 15.5598 38.3376Z" fill="black"/>
</g>
<defs>
<clipPath id="clip0_2044_3434">
<rect width="121" height="40" fill="white"/>
</clipPath>
</defs>
</svg>
